<svg xmlns="http://www.w3.org/2000/svg" width="1400" height="1400" viewBox="0 0 1400 1400">
  <defs>
    <linearGradient id="room" x1="0" x2="1" y1="0" y2="1"><stop offset="0" stop-color="#040505"/><stop offset=".58" stop-color="#0b0f0e"/><stop offset="1" stop-color="#171b1a"/></linearGradient>
    <radialGradient id="glow" cx="50%" cy="47%" r="58%"><stop offset="0" stop-color="#b7ff36" stop-opacity=".62"/><stop offset=".45" stop-color="#ff7a35" stop-opacity=".17"/><stop offset="1" stop-color="#000" stop-opacity="0"/></radialGradient>
    <filter id="soft"><feGaussianBlur stdDeviation="18"/></filter>
  </defs>
  <rect width="1400" height="1400" fill="url(#room)"/>
  <rect x="54" y="54" width="1292" height="1292" rx="46" fill="none" stroke="#27302f" stroke-width="16"/>
  <rect x="88" y="88" width="1224" height="1224" rx="26" fill="none" stroke="#ffc83d" stroke-width="4" opacity=".38"/>
  <circle cx="700" cy="620" r="624" fill="url(#glow)" filter="url(#soft)"/>
  <rect x="120" y="205" width="1160" height="555" rx="10" fill="#080c0c" stroke="#1f2a29" stroke-width="10" />
      <rect x="155" y="245" width="145" height="170" rx="8" fill="#0d1515" stroke="#ffc83d" stroke-width="4" opacity=".58"/><rect x="339" y="245" width="145" height="170" rx="8" fill="#0d1515" stroke="#ffc83d" stroke-width="4" opacity=".58"/><rect x="523" y="245" width="145" height="170" rx="8" fill="#0d1515" stroke="#ffc83d" stroke-width="4" opacity=".58"/><rect x="707" y="245" width="145" height="170" rx="8" fill="#0d1515" stroke="#ffc83d" stroke-width="4" opacity=".58"/><rect x="891" y="245" width="145" height="170" rx="8" fill="#0d1515" stroke="#ffc83d" stroke-width="4" opacity=".58"/><rect x="1075" y="245" width="145" height="170" rx="8" fill="#0d1515" stroke="#ffc83d" stroke-width="4" opacity=".58"/><rect x="155" y="490" width="145" height="170" rx="8" fill="#0d1515" stroke="#ffc83d" stroke-width="4" opacity=".58"/><rect x="339" y="490" width="145" height="170" rx="8" fill="#0d1515" stroke="#ffc83d" stroke-width="4" opacity=".58"/><rect x="523" y="490" width="145" height="170" rx="8" fill="#0d1515" stroke="#ffc83d" stroke-width="4" opacity=".58"/><rect x="707" y="490" width="145" height="170" rx="8" fill="#0d1515" stroke="#ffc83d" stroke-width="4" opacity=".58"/><rect x="891" y="490" width="145" height="170" rx="8" fill="#0d1515" stroke="#ffc83d" stroke-width="4" opacity=".58"/><rect x="1075" y="490" width="145" height="170" rx="8" fill="#0d1515" stroke="#ffc83d" stroke-width="4" opacity=".58"/>
      <path d="M178 305L278 305" stroke="#b7ff36" stroke-width="6" stroke-linecap="round" opacity="0.55" fill="none"/><path d="M362 305L462 305" stroke="#b7ff36" stroke-width="6" stroke-linecap="round" opacity="0.55" fill="none"/><path d="M546 305L646 305" stroke="#b7ff36" stroke-width="6" stroke-linecap="round" opacity="0.55" fill="none"/><path d="M730 305L830 305" stroke="#b7ff36" stroke-width="6" stroke-linecap="round" opacity="0.55" fill="none"/><path d="M914 305L1014 305" stroke="#b7ff36" stroke-width="6" stroke-linecap="round" opacity="0.55" fill="none"/><path d="M1098 305L1198 305" stroke="#b7ff36" stroke-width="6" stroke-linecap="round" opacity="0.55" fill="none"/><path d="M178 550L278 550" stroke="#b7ff36" stroke-width="6" stroke-linecap="round" opacity="0.55" fill="none"/><path d="M362 550L462 550" stroke="#b7ff36" stroke-width="6" stroke-linecap="round" opacity="0.55" fill="none"/><path d="M546 550L646 550" stroke="#b7ff36" stroke-width="6" stroke-linecap="round" opacity="0.55" fill="none"/><path d="M730 550L830 550" stroke="#b7ff36" stroke-width="6" stroke-linecap="round" opacity="0.55" fill="none"/><path d="M914 550L1014 550" stroke="#b7ff36" stroke-width="6" stroke-linecap="round" opacity="0.55" fill="none"/><path d="M1098 550L1198 550" stroke="#b7ff36" stroke-width="6" stroke-linecap="round" opacity="0.55" fill="none"/>
  <rect x="187" y="280" width="330" height="255" rx="16" fill="#060909" stroke="#111515" stroke-width="10" />
    <rect x="205" y="298" width="294" height="207" rx="8" fill="#101819" stroke="#ffc83d" stroke-width="4" opacity=".88"/>
    <path d="M231 342L345.4 342" stroke="#b7ff36" stroke-width="8" stroke-linecap="round" opacity="0.85" fill="none"/>
    <path d="M231 382L408.1 382" stroke="#fff1bd" stroke-width="6" stroke-linecap="round" opacity="0.55" fill="none"/>
    <path d="M352 451l36-46 52 36 70-78 70 86" stroke="#ffc83d" stroke-width="9" stroke-linecap="round" stroke-linejoin="round" fill="none" opacity=".85"/>
    <text x="352" y="517" text-anchor="middle" font-family="ui-monospace, SFMono-Regular, Menlo, monospace" font-size="22" fill="#fff1bd" opacity=".72">CHARTS</text><rect x="535" y="280" width="330" height="255" rx="16" fill="#060909" stroke="#111515" stroke-width="10" />
    <rect x="553" y="298" width="294" height="207" rx="8" fill="#101819" stroke="#ffc83d" stroke-width="4" opacity=".88"/>
    <path d="M579 342L693.4 342" stroke="#b7ff36" stroke-width="8" stroke-linecap="round" opacity="0.85" fill="none"/>
    <path d="M579 382L756.1 382" stroke="#fff1bd" stroke-width="6" stroke-linecap="round" opacity="0.55" fill="none"/>
    <path d="M700 451l36-46 52 36 70-78 70 86" stroke="#ffc83d" stroke-width="9" stroke-linecap="round" stroke-linejoin="round" fill="none" opacity=".85"/>
    <text x="700" y="517" text-anchor="middle" font-family="ui-monospace, SFMono-Regular, Menlo, monospace" font-size="22" fill="#fff1bd" opacity=".72">NEW IPO FEED</text><rect x="883" y="280" width="330" height="255" rx="16" fill="#060909" stroke="#111515" stroke-width="10" />
    <rect x="901" y="298" width="294" height="207" rx="8" fill="#101819" stroke="#ffc83d" stroke-width="4" opacity=".88"/>
    <path d="M927 342L1041.4 342" stroke="#b7ff36" stroke-width="8" stroke-linecap="round" opacity="0.85" fill="none"/>
    <path d="M927 382L1104.1 382" stroke="#fff1bd" stroke-width="6" stroke-linecap="round" opacity="0.55" fill="none"/>
    <path d="M1048 451l36-46 52 36 70-78 70 86" stroke="#ffc83d" stroke-width="9" stroke-linecap="round" stroke-linejoin="round" fill="none" opacity=".85"/>
    <text x="1048" y="517" text-anchor="middle" font-family="ui-monospace, SFMono-Regular, Menlo, monospace" font-size="22" fill="#fff1bd" opacity=".72">PUMP.FUN FEED</text>
  <ellipse cx="700" cy="948" rx="332" ry="74" fill="#020303" opacity=".52"/>
    <path d="M408 1096c22-164 92-292 196-360c58-38 134-58 196-58s138 20 196 58c104 68 174 196 196 360H408z" fill="#171b1c" stroke="#020303" stroke-width="15" stroke-linejoin="round" />
    <path d="M528 828c46-44 104-66 172-66s126 22 172 66l48 250H480z" fill="#050808" opacity=".34"/>
    <path d="M550 576c0-144 62-262 150-272c88 10 150 128 150 272c-50-42-100-64-150-64s-100 22-150 64z" fill="#171b1c" stroke="#020303" stroke-width="14" stroke-linejoin="round" />
    <path d="M588 514c18-90 62-146 112-146s94 56 112 146c-58-30-166-30-224 0z" fill="#0a0e0e" stroke="#020303" stroke-width="8" stroke-linejoin="round" opacity=".92"/>
    <path d="M614 464c42-38 130-38 172 0c28 46 22 120-10 168c-46 28-116 28-162 0c-32-48-38-122 0-168z" fill="#030505" stroke="#020303" stroke-width="10" stroke-linejoin="round" />
    <path d="M626 450c42-24 106-24 148 0" stroke="#ffc83d" stroke-width="5" stroke-linecap="round" opacity=".2" fill="none"/>
    <path d="M648 530L752 530" stroke="#ffc83d" stroke-width="6" stroke-linecap="round" opacity="0.34" fill="none"/><path d="M672 576L728 576" stroke="#111818" stroke-width="6" stroke-linecap="round" opacity="0.44" fill="none"/><rect x="614" y="512" width="64" height="34" rx="6" fill="#061010" stroke="#ffc83d" stroke-width="5" opacity=".76"/><rect x="722" y="512" width="64" height="34" rx="6" fill="#061010" stroke="#ffc83d" stroke-width="5" opacity=".76"/><path d="M678 530L722 530" stroke="#ffc83d" stroke-width="5" stroke-linecap="round" opacity="0.64" fill="none"/>
    <path d="M546 774c36-26 86-42 154-42s118 16 154 42" stroke="#183118" stroke-width="12" stroke-linecap="round" opacity=".42" fill="none"/>
    <path d="M606 780L576 986" stroke="#ffc83d" stroke-width="5" stroke-linecap="round" opacity="0.24" fill="none"/><path d="M794 780L824 986" stroke="#ffc83d" stroke-width="5" stroke-linecap="round" opacity="0.24" fill="none"/><path d="M664 726L640 858" stroke="#fff1bd" stroke-width="4" stroke-linecap="round" opacity="0.26" fill="none"/><path d="M736 726L760 858" stroke="#fff1bd" stroke-width="4" stroke-linecap="round" opacity="0.26" fill="none"/>
    <path d="M458 972c-96 32-166 86-218 162h190c32-42 82-72 150-90z" fill="#171b1c" stroke="#020303" stroke-width="14" stroke-linejoin="round" />
    <path d="M942 972c96 32 166 86 218 162H970c-32-42-82-72-150-90z" fill="#171b1c" stroke="#020303" stroke-width="14" stroke-linejoin="round" />
  <path d="M130 906h1140l96 330H34z" fill="#181e1d" stroke="#050606" stroke-width="20" stroke-linejoin="round" />
    <path d="M165 934h1070l58 210H108z" fill="#0d1111" opacity=".36"/>
    <path d="M240 970L1160 970" stroke="#ffc83d" stroke-width="12" stroke-linecap="round" opacity="0.48" fill="none"/>
    <path d="M520 962c-70 38-128 82-178 134l90 42c48-52 94-86 142-104z" fill="#171b1c" stroke="#050606" stroke-width="10" stroke-linejoin="round" />
    <path d="M880 962c70 38 128 82 178 134l-90 42c-48-52-94-86-142-104z" fill="#171b1c" stroke="#050606" stroke-width="10" stroke-linejoin="round" />
    <rect x="416" y="1112" width="76" height="42" rx="16" fill="#e8e2d6" stroke="#050606" stroke-width="7" />
    <rect x="908" y="1112" width="76" height="42" rx="16" fill="#e8e2d6" stroke="#050606" stroke-width="7" />
    <rect x="500" y="1001" width="400" height="118" rx="18" fill="#070a0a" stroke="#050606" stroke-width="12" />
    <path d="M545 1046L855 1046" stroke="#ffc83d" stroke-width="13" stroke-linecap="round" opacity="0.7" fill="none"/><path d="M570 1090L830 1090" stroke="#fff1bd" stroke-width="10" stroke-linecap="round" opacity="0.55" fill="none"/>
    <rect x="575" y="1151" width="250" height="54" rx="14" fill="#080c0c" stroke="#050606" stroke-width="9" /><path d="M608 1178L792 1178" stroke="#fff1bd" stroke-width="7" stroke-linecap="round" opacity="0.58" fill="none"/>
    <rect x="154" y="1045" width="124" height="58" rx="6" fill="#9ccf7e" stroke="#050606" stroke-width="6" transform="rotate(-6 0 0)"/><path d="M178 1075L248 1075" stroke="#050606" stroke-width="4" stroke-linecap="round" opacity="0.32" fill="none"/><rect x="304" y="1103" width="84" height="42" rx="10" fill="#080c0c" stroke="#050606" stroke-width="7" /><path d="M318 1125L368 1125" stroke="#ffc83d" stroke-width="5" stroke-linecap="round" opacity="0.75" fill="none"/><rect x="452" y="1045" width="34" height="82" rx="8" fill="#ffc83d" stroke="#050606" stroke-width="7" /><path d="M461 1073L477 1073" stroke="#050606" stroke-width="4" stroke-linecap="round" opacity="0.6" fill="none"/><path d="M598 1121h48l18-16h88v82H598z" fill="#d2b15a" stroke="#050606" stroke-width="7" stroke-linejoin="round" /><path d="M618 1155L718 1155" stroke="#050606" stroke-width="4" stroke-linecap="round" opacity="0.35" fill="none"/><rect x="744" y="1045" width="48" height="64" rx="12" fill="#f4ead9" stroke="#050606" stroke-width="7" /><path d="M792 1063h18c18 0 18 28 0 28h-18" fill="none" stroke="#050606" stroke-width="7" stroke-linejoin="round" /><rect x="1040" y="1020" width="78" height="40" rx="10" fill="#080c0c" stroke="#050606" stroke-width="7" /><rect x="1074" y="1048" width="78" height="40" rx="10" fill="#080c0c" stroke="#050606" stroke-width="7" /><path d="M1086 1070L1134 1070" stroke="#ff7a35" stroke-width="5" stroke-linecap="round" opacity="0.7" fill="none"/>
  <rect x="114" y="112" width="220" height="58" rx="14" fill="#0a0d0d" stroke="#ffc83d" stroke-width="5"/>
  <text x="224" y="151" text-anchor="middle" font-family="Inter, Arial, sans-serif" font-size="28" font-weight="800" fill="#fff1bd">$IPO</text>
  <rect x="1058" y="112" width="228" height="58" rx="14" fill="#0a0d0d" stroke="#27302f" stroke-width="5"/>
  <text x="1172" y="151" text-anchor="middle" font-family="Inter, Arial, sans-serif" font-size="25" font-weight="800" fill="#fff1bd">IPO #318</text>
  <desc>IPO Floor anonymous insider ANTH-318: oversized hoodie, black mask, reflective shades, basement, laptop, order book, Epic, Trader</desc>
</svg>