<svg xmlns="http://www.w3.org/2000/svg" width="1400" height="1400" viewBox="0 0 1400 1400">
  <defs>
    <linearGradient id="room" x1="0" x2="1" y1="0" y2="1"><stop offset="0" stop-color="#040505"/><stop offset=".58" stop-color="#0b0f0e"/><stop offset="1" stop-color="#171b1a"/></linearGradient>
    <radialGradient id="glow" cx="50%" cy="47%" r="58%"><stop offset="0" stop-color="#39d6ff" stop-opacity=".62"/><stop offset=".45" stop-color="#ff4f9a" stop-opacity=".17"/><stop offset="1" stop-color="#000" stop-opacity="0"/></radialGradient>
    <filter id="soft"><feGaussianBlur stdDeviation="18"/></filter>
  </defs>
  <rect width="1400" height="1400" fill="url(#room)"/>
  <rect x="54" y="54" width="1292" height="1292" rx="46" fill="none" stroke="#27302f" stroke-width="16"/>
  <rect x="88" y="88" width="1224" height="1224" rx="26" fill="none" stroke="#b7ff36" stroke-width="4" opacity=".38"/>
  <circle cx="700" cy="620" r="646" fill="url(#glow)" filter="url(#soft)"/>
  <rect x="120" y="205" width="1160" height="555" rx="10" fill="#080c0c" stroke="#1f2a29" stroke-width="10" />
      <rect x="155" y="245" width="145" height="170" rx="8" fill="#0d1515" stroke="#b7ff36" stroke-width="4" opacity=".58"/><rect x="339" y="245" width="145" height="170" rx="8" fill="#0d1515" stroke="#b7ff36" stroke-width="4" opacity=".58"/><rect x="523" y="245" width="145" height="170" rx="8" fill="#0d1515" stroke="#b7ff36" stroke-width="4" opacity=".58"/><rect x="707" y="245" width="145" height="170" rx="8" fill="#0d1515" stroke="#b7ff36" stroke-width="4" opacity=".58"/><rect x="891" y="245" width="145" height="170" rx="8" fill="#0d1515" stroke="#b7ff36" stroke-width="4" opacity=".58"/><rect x="1075" y="245" width="145" height="170" rx="8" fill="#0d1515" stroke="#b7ff36" stroke-width="4" opacity=".58"/><rect x="155" y="490" width="145" height="170" rx="8" fill="#0d1515" stroke="#b7ff36" stroke-width="4" opacity=".58"/><rect x="339" y="490" width="145" height="170" rx="8" fill="#0d1515" stroke="#b7ff36" stroke-width="4" opacity=".58"/><rect x="523" y="490" width="145" height="170" rx="8" fill="#0d1515" stroke="#b7ff36" stroke-width="4" opacity=".58"/><rect x="707" y="490" width="145" height="170" rx="8" fill="#0d1515" stroke="#b7ff36" stroke-width="4" opacity=".58"/><rect x="891" y="490" width="145" height="170" rx="8" fill="#0d1515" stroke="#b7ff36" stroke-width="4" opacity=".58"/><rect x="1075" y="490" width="145" height="170" rx="8" fill="#0d1515" stroke="#b7ff36" stroke-width="4" opacity=".58"/>
      <path d="M178 305L278 305" stroke="#39d6ff" stroke-width="6" stroke-linecap="round" opacity="0.55" fill="none"/><path d="M362 305L462 305" stroke="#39d6ff" stroke-width="6" stroke-linecap="round" opacity="0.55" fill="none"/><path d="M546 305L646 305" stroke="#39d6ff" stroke-width="6" stroke-linecap="round" opacity="0.55" fill="none"/><path d="M730 305L830 305" stroke="#39d6ff" stroke-width="6" stroke-linecap="round" opacity="0.55" fill="none"/><path d="M914 305L1014 305" stroke="#39d6ff" stroke-width="6" stroke-linecap="round" opacity="0.55" fill="none"/><path d="M1098 305L1198 305" stroke="#39d6ff" stroke-width="6" stroke-linecap="round" opacity="0.55" fill="none"/><path d="M178 550L278 550" stroke="#39d6ff" stroke-width="6" stroke-linecap="round" opacity="0.55" fill="none"/><path d="M362 550L462 550" stroke="#39d6ff" stroke-width="6" stroke-linecap="round" opacity="0.55" fill="none"/><path d="M546 550L646 550" stroke="#39d6ff" stroke-width="6" stroke-linecap="round" opacity="0.55" fill="none"/><path d="M730 550L830 550" stroke="#39d6ff" stroke-width="6" stroke-linecap="round" opacity="0.55" fill="none"/><path d="M914 550L1014 550" stroke="#39d6ff" stroke-width="6" stroke-linecap="round" opacity="0.55" fill="none"/><path d="M1098 550L1198 550" stroke="#39d6ff" stroke-width="6" stroke-linecap="round" opacity="0.55" fill="none"/>
  <rect x="259" y="230" width="162" height="185" rx="16" fill="#060909" stroke="#111515" stroke-width="10" />
    <rect x="277" y="248" width="126" height="137" rx="8" fill="#101819" stroke="#b7ff36" stroke-width="4" opacity=".88"/>
    <path d="M303 292L336.76 292" stroke="#39d6ff" stroke-width="8" stroke-linecap="round" opacity="0.85" fill="none"/>
    <path d="M303 332L367.54 332" stroke="#f5d14c" stroke-width="6" stroke-linecap="round" opacity="0.55" fill="none"/>
    <path d="M340 331l36-46 52 36 70-78 70 86" stroke="#b7ff36" stroke-width="9" stroke-linecap="round" stroke-linejoin="round" fill="none" opacity=".85"/>
    <text x="340" y="397" text-anchor="middle" font-family="ui-monospace, SFMono-Regular, Menlo, monospace" font-size="14" fill="#f5d14c" opacity=".72">MULTIPLE FEEDS</text><rect x="439" y="230" width="162" height="185" rx="16" fill="#060909" stroke="#111515" stroke-width="10" />
    <rect x="457" y="248" width="126" height="137" rx="8" fill="#101819" stroke="#b7ff36" stroke-width="4" opacity=".88"/>
    <path d="M483 292L516.76 292" stroke="#39d6ff" stroke-width="8" stroke-linecap="round" opacity="0.85" fill="none"/>
    <path d="M483 332L547.54 332" stroke="#f5d14c" stroke-width="6" stroke-linecap="round" opacity="0.55" fill="none"/>
    <path d="M520 331l36-46 52 36 70-78 70 86" stroke="#b7ff36" stroke-width="9" stroke-linecap="round" stroke-linejoin="round" fill="none" opacity=".85"/>
    <text x="520" y="397" text-anchor="middle" font-family="ui-monospace, SFMono-Regular, Menlo, monospace" font-size="14" fill="#f5d14c" opacity=".72">INSIDER FLOW</text><rect x="619" y="230" width="162" height="185" rx="16" fill="#060909" stroke="#111515" stroke-width="10" />
    <rect x="637" y="248" width="126" height="137" rx="8" fill="#101819" stroke="#b7ff36" stroke-width="4" opacity=".88"/>
    <path d="M663 292L696.76 292" stroke="#39d6ff" stroke-width="8" stroke-linecap="round" opacity="0.85" fill="none"/>
    <path d="M663 332L727.54 332" stroke="#f5d14c" stroke-width="6" stroke-linecap="round" opacity="0.55" fill="none"/>
    <path d="M700 331l36-46 52 36 70-78 70 86" stroke="#b7ff36" stroke-width="9" stroke-linecap="round" stroke-linejoin="round" fill="none" opacity=".85"/>
    <text x="700" y="397" text-anchor="middle" font-family="ui-monospace, SFMono-Regular, Menlo, monospace" font-size="14" fill="#f5d14c" opacity=".72">ORDER BOOK</text><rect x="799" y="230" width="162" height="185" rx="16" fill="#060909" stroke="#111515" stroke-width="10" />
    <rect x="817" y="248" width="126" height="137" rx="8" fill="#101819" stroke="#b7ff36" stroke-width="4" opacity=".88"/>
    <path d="M843 292L876.76 292" stroke="#39d6ff" stroke-width="8" stroke-linecap="round" opacity="0.85" fill="none"/>
    <path d="M843 332L907.54 332" stroke="#f5d14c" stroke-width="6" stroke-linecap="round" opacity="0.55" fill="none"/>
    <path d="M880 331l36-46 52 36 70-78 70 86" stroke="#b7ff36" stroke-width="9" stroke-linecap="round" stroke-linejoin="round" fill="none" opacity=".85"/>
    <text x="880" y="397" text-anchor="middle" font-family="ui-monospace, SFMono-Regular, Menlo, monospace" font-size="14" fill="#f5d14c" opacity=".72">WALLET TRACKER</text><rect x="979" y="230" width="162" height="185" rx="16" fill="#060909" stroke="#111515" stroke-width="10" />
    <rect x="997" y="248" width="126" height="137" rx="8" fill="#101819" stroke="#b7ff36" stroke-width="4" opacity=".88"/>
    <path d="M1023 292L1056.76 292" stroke="#39d6ff" stroke-width="8" stroke-linecap="round" opacity="0.85" fill="none"/>
    <path d="M1023 332L1087.54 332" stroke="#f5d14c" stroke-width="6" stroke-linecap="round" opacity="0.55" fill="none"/>
    <path d="M1060 331l36-46 52 36 70-78 70 86" stroke="#b7ff36" stroke-width="9" stroke-linecap="round" stroke-linejoin="round" fill="none" opacity=".85"/>
    <text x="1060" y="397" text-anchor="middle" font-family="ui-monospace, SFMono-Regular, Menlo, monospace" font-size="14" fill="#f5d14c" opacity=".72">PUMP.FUN FEED</text><rect x="319" y="455" width="177" height="178" rx="16" fill="#060909" stroke="#111515" stroke-width="10" />
    <rect x="337" y="473" width="141" height="130" rx="8" fill="#101819" stroke="#b7ff36" stroke-width="4" opacity=".88"/>
    <path d="M363 517L403.96 517" stroke="#39d6ff" stroke-width="8" stroke-linecap="round" opacity="0.85" fill="none"/>
    <path d="M363 557L437.59000000000003 557" stroke="#f5d14c" stroke-width="6" stroke-linecap="round" opacity="0.55" fill="none"/>
    <path d="M407.5 549l36-46 52 36 70-78 70 86" stroke="#b7ff36" stroke-width="9" stroke-linecap="round" stroke-linejoin="round" fill="none" opacity=".85"/>
    <text x="407.5" y="615" text-anchor="middle" font-family="ui-monospace, SFMono-Regular, Menlo, monospace" font-size="14.75" fill="#f5d14c" opacity=".72">TOKEN SCANNER</text><rect x="514" y="455" width="177" height="178" rx="16" fill="#060909" stroke="#111515" stroke-width="10" />
    <rect x="532" y="473" width="141" height="130" rx="8" fill="#101819" stroke="#b7ff36" stroke-width="4" opacity=".88"/>
    <path d="M558 517L598.96 517" stroke="#39d6ff" stroke-width="8" stroke-linecap="round" opacity="0.85" fill="none"/>
    <path d="M558 557L632.59 557" stroke="#f5d14c" stroke-width="6" stroke-linecap="round" opacity="0.55" fill="none"/>
    <path d="M602.5 549l36-46 52 36 70-78 70 86" stroke="#b7ff36" stroke-width="9" stroke-linecap="round" stroke-linejoin="round" fill="none" opacity=".85"/>
    <text x="602.5" y="615" text-anchor="middle" font-family="ui-monospace, SFMono-Regular, Menlo, monospace" font-size="14.75" fill="#f5d14c" opacity=".72">MULTIPLE FEEDS</text><rect x="709" y="455" width="177" height="178" rx="16" fill="#060909" stroke="#111515" stroke-width="10" />
    <rect x="727" y="473" width="141" height="130" rx="8" fill="#101819" stroke="#b7ff36" stroke-width="4" opacity=".88"/>
    <path d="M753 517L793.96 517" stroke="#39d6ff" stroke-width="8" stroke-linecap="round" opacity="0.85" fill="none"/>
    <path d="M753 557L827.59 557" stroke="#f5d14c" stroke-width="6" stroke-linecap="round" opacity="0.55" fill="none"/>
    <path d="M797.5 549l36-46 52 36 70-78 70 86" stroke="#b7ff36" stroke-width="9" stroke-linecap="round" stroke-linejoin="round" fill="none" opacity=".85"/>
    <text x="797.5" y="615" text-anchor="middle" font-family="ui-monospace, SFMono-Regular, Menlo, monospace" font-size="14.75" fill="#f5d14c" opacity=".72">INSIDER FLOW</text><rect x="904" y="455" width="177" height="178" rx="16" fill="#060909" stroke="#111515" stroke-width="10" />
    <rect x="922" y="473" width="141" height="130" rx="8" fill="#101819" stroke="#b7ff36" stroke-width="4" opacity=".88"/>
    <path d="M948 517L988.96 517" stroke="#39d6ff" stroke-width="8" stroke-linecap="round" opacity="0.85" fill="none"/>
    <path d="M948 557L1022.59 557" stroke="#f5d14c" stroke-width="6" stroke-linecap="round" opacity="0.55" fill="none"/>
    <path d="M992.5 549l36-46 52 36 70-78 70 86" stroke="#b7ff36" stroke-width="9" stroke-linecap="round" stroke-linejoin="round" fill="none" opacity=".85"/>
    <text x="992.5" y="615" text-anchor="middle" font-family="ui-monospace, SFMono-Regular, Menlo, monospace" font-size="14.75" fill="#f5d14c" opacity=".72">ORDER BOOK</text>
  <ellipse cx="700" cy="920" rx="340" ry="58" fill="#020303" opacity=".38"/>
    <path d="M537 760c42-122 112-184 163-184s178 62 163 184z" fill="#202527" stroke="#050606" stroke-width="12" stroke-linejoin="round" />
    <path d="M537 740c42-34 92-52 163-52s121 18 163 52l58 280H479z" fill="#202527" stroke="#050606" stroke-width="12" stroke-linejoin="round" />
    <path d="M596 750c38 42 170 42 208 0l-28 112H624z" fill="#090d0d" stroke="#050606" stroke-width="7" stroke-linejoin="round" opacity=".36"/>
    <path d="M646 770L626 930" stroke="#b7ff36" stroke-width="5" stroke-linecap="round" opacity="0.35" fill="none"/><path d="M754 770L774 930" stroke="#b7ff36" stroke-width="5" stroke-linecap="round" opacity="0.35" fill="none"/>
    <path d="M678 708L656 832" stroke="#f5d14c" stroke-width="4" stroke-linecap="round" opacity="0.55" fill="none"/><path d="M722 708L744 832" stroke="#f5d14c" stroke-width="4" stroke-linecap="round" opacity="0.55" fill="none"/>
    <ellipse cx="700" cy="528" rx="78" ry="92" fill="#0b0d0d" stroke="#050606" stroke-width="10"/><path d="M652 518L748 518" stroke="#b7ff36" stroke-width="8" stroke-linecap="round" opacity="0.45" fill="none"/>
    <path d="M470 860c-88 66-126 132-130 214h156c20-90 62-145 126-168z" fill="#202527" stroke="#050606" stroke-width="12" stroke-linejoin="round" />
    <path d="M930 860c88 66 126 132 130 214H904c-20-90-62-145-126-168z" fill="#202527" stroke="#050606" stroke-width="12" stroke-linejoin="round" />
  <path d="M130 888h1140l96 330H34z" fill="#181e1d" stroke="#050606" stroke-width="20" stroke-linejoin="round" />
    <path d="M165 916h1070l58 210H108z" fill="#0d1111" opacity=".36"/>
    <path d="M240 952L1160 952" stroke="#b7ff36" stroke-width="12" stroke-linecap="round" opacity="0.48" fill="none"/>
    <path d="M520 944c-70 38-128 82-178 134l90 42c48-52 94-86 142-104z" fill="#202527" stroke="#050606" stroke-width="10" stroke-linejoin="round" />
    <path d="M880 944c70 38 128 82 178 134l-90 42c-48-52-94-86-142-104z" fill="#202527" stroke="#050606" stroke-width="10" stroke-linejoin="round" />
    <rect x="416" y="1094" width="76" height="42" rx="16" fill="#e8e2d6" stroke="#050606" stroke-width="7" />
    <rect x="908" y="1094" width="76" height="42" rx="16" fill="#e8e2d6" stroke="#050606" stroke-width="7" />
    <rect x="500" y="983" width="400" height="118" rx="18" fill="#070a0a" stroke="#050606" stroke-width="12" />
    <path d="M545 1028L855 1028" stroke="#b7ff36" stroke-width="13" stroke-linecap="round" opacity="0.7" fill="none"/><path d="M570 1072L830 1072" stroke="#f5d14c" stroke-width="10" stroke-linecap="round" opacity="0.55" fill="none"/>
    <rect x="575" y="1133" width="250" height="54" rx="14" fill="#080c0c" stroke="#050606" stroke-width="9" /><path d="M608 1160L792 1160" stroke="#f5d14c" stroke-width="7" stroke-linecap="round" opacity="0.58" fill="none"/>
    <rect x="161" y="1045" width="84" height="42" rx="10" fill="#080c0c" stroke="#050606" stroke-width="7" /><path d="M175 1067L225 1067" stroke="#b7ff36" stroke-width="5" stroke-linecap="round" opacity="0.75" fill="none"/><rect x="295" y="1103" width="124" height="58" rx="6" fill="#9ccf7e" stroke="#050606" stroke-width="6" transform="rotate(-6 0 0)"/><path d="M319 1133L389 1133" stroke="#050606" stroke-width="4" stroke-linecap="round" opacity="0.32" fill="none"/><rect x="447" y="1045" width="78" height="40" rx="10" fill="#080c0c" stroke="#050606" stroke-width="7" /><rect x="481" y="1073" width="78" height="40" rx="10" fill="#080c0c" stroke="#050606" stroke-width="7" /><path d="M493 1095L541 1095" stroke="#ff4f9a" stroke-width="5" stroke-linecap="round" opacity="0.7" fill="none"/><rect x="596" y="1103" width="108" height="72" rx="8" fill="#14191a" stroke="#050606" stroke-width="7" /><path d="M614 1128L682 1128" stroke="#f5d14c" stroke-width="4" stroke-linecap="round" opacity="0.55" fill="none"/><path d="M614 1151L666 1151" stroke="#b7ff36" stroke-width="4" stroke-linecap="round" opacity="0.55" fill="none"/><path d="M730 1063h48l18-16h88v82H730z" fill="#d2b15a" stroke="#050606" stroke-width="7" stroke-linejoin="round" /><path d="M750 1097L850 1097" stroke="#050606" stroke-width="4" stroke-linecap="round" opacity="0.35" fill="none"/><rect x="869" y="1103" width="128" height="58" rx="8" fill="#101616" stroke="#050606" stroke-width="7" /><path d="M885 1131L977 1131" stroke="#b7ff36" stroke-width="5" stroke-linecap="round" opacity="0.72" fill="none"/><rect x="1040" y="1020" width="128" height="58" rx="8" fill="#101616" stroke="#050606" stroke-width="7" /><path d="M1056 1048L1148 1048" stroke="#b7ff36" stroke-width="5" stroke-linecap="round" opacity="0.72" fill="none"/>
  <rect x="114" y="112" width="220" height="58" rx="14" fill="#0a0d0d" stroke="#b7ff36" stroke-width="5"/>
  <text x="224" y="151" text-anchor="middle" font-family="Inter, Arial, sans-serif" font-size="28" font-weight="800" fill="#f5d14c">$IPO</text>
  <rect x="1058" y="112" width="228" height="58" rx="14" fill="#0a0d0d" stroke="#27302f" stroke-width="5"/>
  <text x="1172" y="151" text-anchor="middle" font-family="Inter, Arial, sans-serif" font-size="25" font-weight="800" fill="#f5d14c">IPO #313</text>
  <desc>IPO Floor anonymous insider GTA-313: bomber jacket, balaclava, none, executive office, 6 monitor, wallet tracker, Epic, Insider</desc>
</svg>