<svg xmlns="http://www.w3.org/2000/svg" width="1400" height="1400" viewBox="0 0 1400 1400">
  <defs>
    <linearGradient id="room" x1="0" x2="1" y1="0" y2="1"><stop offset="0" stop-color="#040505"/><stop offset=".58" stop-color="#0b0f0e"/><stop offset="1" stop-color="#171b1a"/></linearGradient>
    <radialGradient id="glow" cx="50%" cy="47%" r="58%"><stop offset="0" stop-color="#7e88ff" stop-opacity=".62"/><stop offset=".45" stop-color="#9d8cff" stop-opacity=".17"/><stop offset="1" stop-color="#000" stop-opacity="0"/></radialGradient>
    <filter id="soft"><feGaussianBlur stdDeviation="18"/></filter>
  </defs>
  <rect width="1400" height="1400" fill="url(#room)"/>
  <rect x="54" y="54" width="1292" height="1292" rx="46" fill="none" stroke="#27302f" stroke-width="16"/>
  <rect x="88" y="88" width="1224" height="1224" rx="26" fill="none" stroke="#39d6ff" stroke-width="4" opacity=".38"/>
  <circle cx="700" cy="620" r="582" fill="url(#glow)" filter="url(#soft)"/>
  <rect x="82" y="230" width="175" height="550" rx="10" fill="#0b1012" stroke="#1d2a2b" stroke-width="8" /><rect x="1142" y="230" width="175" height="550" rx="10" fill="#0b1012" stroke="#1d2a2b" stroke-width="8" />
      <path d="M112 304L226 304" stroke="#9d8cff" stroke-width="8" stroke-linecap="round" opacity="0.38" fill="none"/><path d="M1172 304L1286 304" stroke="#39d6ff" stroke-width="8" stroke-linecap="round" opacity="0.38" fill="none"/><path d="M112 366L226 366" stroke="#39d6ff" stroke-width="8" stroke-linecap="round" opacity="0.38" fill="none"/><path d="M1172 366L1286 366" stroke="#9d8cff" stroke-width="8" stroke-linecap="round" opacity="0.38" fill="none"/><path d="M112 428L226 428" stroke="#9d8cff" stroke-width="8" stroke-linecap="round" opacity="0.38" fill="none"/><path d="M1172 428L1286 428" stroke="#39d6ff" stroke-width="8" stroke-linecap="round" opacity="0.38" fill="none"/><path d="M112 490L226 490" stroke="#39d6ff" stroke-width="8" stroke-linecap="round" opacity="0.38" fill="none"/><path d="M1172 490L1286 490" stroke="#9d8cff" stroke-width="8" stroke-linecap="round" opacity="0.38" fill="none"/><path d="M112 552L226 552" stroke="#9d8cff" stroke-width="8" stroke-linecap="round" opacity="0.38" fill="none"/><path d="M1172 552L1286 552" stroke="#39d6ff" stroke-width="8" stroke-linecap="round" opacity="0.38" fill="none"/><path d="M112 614L226 614" stroke="#39d6ff" stroke-width="8" stroke-linecap="round" opacity="0.38" fill="none"/><path d="M1172 614L1286 614" stroke="#9d8cff" stroke-width="8" stroke-linecap="round" opacity="0.38" fill="none"/><path d="M112 676L226 676" stroke="#9d8cff" stroke-width="8" stroke-linecap="round" opacity="0.38" fill="none"/><path d="M1172 676L1286 676" stroke="#39d6ff" stroke-width="8" stroke-linecap="round" opacity="0.38" fill="none"/>
  <rect x="187" y="280" width="330" height="255" rx="16" fill="#060909" stroke="#111515" stroke-width="10" />
    <rect x="205" y="298" width="294" height="207" rx="8" fill="#101819" stroke="#39d6ff" stroke-width="4" opacity=".88"/>
    <path d="M231 342L345.4 342" stroke="#7e88ff" stroke-width="8" stroke-linecap="round" opacity="0.85" fill="none"/>
    <path d="M231 382L408.1 382" stroke="#e7f8ff" stroke-width="6" stroke-linecap="round" opacity="0.55" fill="none"/>
    <path d="M352 451l36-46 52 36 70-78 70 86" stroke="#39d6ff" stroke-width="9" stroke-linecap="round" stroke-linejoin="round" fill="none" opacity=".85"/>
    <text x="352" y="517" text-anchor="middle" font-family="ui-monospace, SFMono-Regular, Menlo, monospace" font-size="22" fill="#e7f8ff" opacity=".72">CHARTS</text><rect x="535" y="280" width="330" height="255" rx="16" fill="#060909" stroke="#111515" stroke-width="10" />
    <rect x="553" y="298" width="294" height="207" rx="8" fill="#101819" stroke="#39d6ff" stroke-width="4" opacity=".88"/>
    <path d="M579 342L693.4 342" stroke="#7e88ff" stroke-width="8" stroke-linecap="round" opacity="0.85" fill="none"/>
    <path d="M579 382L756.1 382" stroke="#e7f8ff" stroke-width="6" stroke-linecap="round" opacity="0.55" fill="none"/>
    <path d="M700 451l36-46 52 36 70-78 70 86" stroke="#39d6ff" stroke-width="9" stroke-linecap="round" stroke-linejoin="round" fill="none" opacity=".85"/>
    <text x="700" y="517" text-anchor="middle" font-family="ui-monospace, SFMono-Regular, Menlo, monospace" font-size="22" fill="#e7f8ff" opacity=".72">NEW IPO FEED</text><rect x="883" y="280" width="330" height="255" rx="16" fill="#060909" stroke="#111515" stroke-width="10" />
    <rect x="901" y="298" width="294" height="207" rx="8" fill="#101819" stroke="#39d6ff" stroke-width="4" opacity=".88"/>
    <path d="M927 342L1041.4 342" stroke="#7e88ff" stroke-width="8" stroke-linecap="round" opacity="0.85" fill="none"/>
    <path d="M927 382L1104.1 382" stroke="#e7f8ff" stroke-width="6" stroke-linecap="round" opacity="0.55" fill="none"/>
    <path d="M1048 451l36-46 52 36 70-78 70 86" stroke="#39d6ff" stroke-width="9" stroke-linecap="round" stroke-linejoin="round" fill="none" opacity=".85"/>
    <text x="1048" y="517" text-anchor="middle" font-family="ui-monospace, SFMono-Regular, Menlo, monospace" font-size="22" fill="#e7f8ff" opacity=".72">PUMP.FUN FEED</text>
  <ellipse cx="700" cy="920" rx="320" ry="58" fill="#020303" opacity=".38"/>
    <path d="M544 760c42-122 112-184 156-184s178 62 156 184z" fill="#18191f" stroke="#050606" stroke-width="12" stroke-linejoin="round" />
    <path d="M544 740c42-34 92-52 156-52s114 18 156 52l58 280H486z" fill="#18191f" stroke="#050606" stroke-width="12" stroke-linejoin="round" />
    <path d="M596 750c38 42 170 42 208 0l-28 112H624z" fill="#090d0d" stroke="#050606" stroke-width="7" stroke-linejoin="round" opacity=".36"/>
    <path d="M646 770L626 930" stroke="#39d6ff" stroke-width="5" stroke-linecap="round" opacity="0.35" fill="none"/><path d="M754 770L774 930" stroke="#39d6ff" stroke-width="5" stroke-linecap="round" opacity="0.35" fill="none"/>
    <path d="M678 708L656 832" stroke="#e7f8ff" stroke-width="4" stroke-linecap="round" opacity="0.55" fill="none"/><path d="M722 708L744 832" stroke="#e7f8ff" stroke-width="4" stroke-linecap="round" opacity="0.55" fill="none"/>
    <ellipse cx="700" cy="528" rx="78" ry="92" fill="#0b0d0d" stroke="#050606" stroke-width="10"/><path d="M652 518L748 518" stroke="#39d6ff" stroke-width="8" stroke-linecap="round" opacity="0.45" fill="none"/>
    <path d="M470 860c-88 66-126 132-130 214h156c20-90 62-145 126-168z" fill="#18191f" stroke="#050606" stroke-width="12" stroke-linejoin="round" />
    <path d="M930 860c88 66 126 132 130 214H904c-20-90-62-145-126-168z" fill="#18191f" stroke="#050606" stroke-width="12" stroke-linejoin="round" />
  <path d="M130 906h1140l96 330H34z" fill="#22282a" stroke="#050606" stroke-width="20" stroke-linejoin="round" />
    <path d="M165 934h1070l58 210H108z" fill="#0d1111" opacity=".36"/>
    <path d="M240 970L1160 970" stroke="#39d6ff" stroke-width="12" stroke-linecap="round" opacity="0.48" fill="none"/>
    <path d="M520 962c-70 38-128 82-178 134l90 42c48-52 94-86 142-104z" fill="#18191f" stroke="#050606" stroke-width="10" stroke-linejoin="round" />
    <path d="M880 962c70 38 128 82 178 134l-90 42c-48-52-94-86-142-104z" fill="#18191f" stroke="#050606" stroke-width="10" stroke-linejoin="round" />
    <rect x="416" y="1112" width="76" height="42" rx="16" fill="#e8e2d6" stroke="#050606" stroke-width="7" />
    <rect x="908" y="1112" width="76" height="42" rx="16" fill="#e8e2d6" stroke="#050606" stroke-width="7" />
    <rect x="500" y="1001" width="400" height="118" rx="18" fill="#070a0a" stroke="#050606" stroke-width="12" />
    <path d="M545 1046L855 1046" stroke="#39d6ff" stroke-width="13" stroke-linecap="round" opacity="0.7" fill="none"/><path d="M570 1090L830 1090" stroke="#e7f8ff" stroke-width="10" stroke-linecap="round" opacity="0.55" fill="none"/>
    <rect x="575" y="1151" width="250" height="54" rx="14" fill="#080c0c" stroke="#050606" stroke-width="9" /><path d="M608 1178L792 1178" stroke="#e7f8ff" stroke-width="7" stroke-linecap="round" opacity="0.58" fill="none"/>
    <rect x="182" y="1045" width="34" height="82" rx="8" fill="#39d6ff" stroke="#050606" stroke-width="7" /><path d="M191 1073L207 1073" stroke="#050606" stroke-width="4" stroke-linecap="round" opacity="0.6" fill="none"/><rect x="318" y="1103" width="112" height="38" rx="18" fill="#d5d9ce" stroke="#050606" stroke-width="7" /><rect x="390" y="1111" width="28" height="22" rx="6" fill="#39d6ff" stroke="#050606" stroke-width="4" /><rect x="472" y="1045" width="78" height="40" rx="10" fill="#080c0c" stroke="#050606" stroke-width="7" /><rect x="506" y="1073" width="78" height="40" rx="10" fill="#080c0c" stroke="#050606" stroke-width="7" /><path d="M518 1095L566 1095" stroke="#9d8cff" stroke-width="5" stroke-linecap="round" opacity="0.7" fill="none"/><rect x="621" y="1103" width="84" height="42" rx="10" fill="#080c0c" stroke="#050606" stroke-width="7" /><path d="M635 1125L685 1125" stroke="#39d6ff" stroke-width="5" stroke-linecap="round" opacity="0.75" fill="none"/><rect x="768" y="1045" width="124" height="58" rx="6" fill="#9ccf7e" stroke="#050606" stroke-width="6" transform="rotate(-6 0 0)"/><path d="M792 1075L862 1075" stroke="#050606" stroke-width="4" stroke-linecap="round" opacity="0.32" fill="none"/><rect x="914" y="1103" width="128" height="58" rx="8" fill="#101616" stroke="#050606" stroke-width="7" /><path d="M930 1131L1022 1131" stroke="#39d6ff" stroke-width="5" stroke-linecap="round" opacity="0.72" fill="none"/>
  <rect x="114" y="112" width="220" height="58" rx="14" fill="#0a0d0d" stroke="#39d6ff" stroke-width="5"/>
  <text x="224" y="151" text-anchor="middle" font-family="Inter, Arial, sans-serif" font-size="28" font-weight="800" fill="#e7f8ff">$IPO</text>
  <rect x="1058" y="112" width="228" height="58" rx="14" fill="#0a0d0d" stroke="#27302f" stroke-width="5"/>
  <text x="1172" y="151" text-anchor="middle" font-family="Inter, Arial, sans-serif" font-size="25" font-weight="800" fill="#e7f8ff">IPO #293</text>
  <desc>IPO Floor anonymous insider NLNK-293: dark suit, balaclava, none, trading floor, single monitor, order book, Rare, Trader</desc>
</svg>