<svg xmlns="http://www.w3.org/2000/svg" width="1400" height="1400" viewBox="0 0 1400 1400">
  <defs>
    <linearGradient id="room" x1="0" x2="1" y1="0" y2="1"><stop offset="0" stop-color="#040505"/><stop offset=".58" stop-color="#0b0f0e"/><stop offset="1" stop-color="#171b1a"/></linearGradient>
    <radialGradient id="glow" cx="50%" cy="47%" r="58%"><stop offset="0" stop-color="#b7ff36" stop-opacity=".62"/><stop offset=".45" stop-color="#9d8cff" stop-opacity=".17"/><stop offset="1" stop-color="#000" stop-opacity="0"/></radialGradient>
    <filter id="soft"><feGaussianBlur stdDeviation="18"/></filter>
  </defs>
  <rect width="1400" height="1400" fill="url(#room)"/>
  <rect x="54" y="54" width="1292" height="1292" rx="46" fill="none" stroke="#27302f" stroke-width="16"/>
  <rect x="88" y="88" width="1224" height="1224" rx="26" fill="none" stroke="#39d6ff" stroke-width="4" opacity=".38"/>
  <circle cx="700" cy="620" r="498" fill="url(#glow)" filter="url(#soft)"/>
  <path d="M65 725V330h92v395M182 725V238h76v487M290 725V380h115v345M1060 725V282h98v443M1188 725V362h100v363" fill="#0c1111" stroke="#1c2726" stroke-width="8" opacity=".7"/>
    <path d="M88 390h48M88 468h48M202 306h34M202 382h34M1088 352h44M1088 434h44M1212 430h48" stroke="#39d6ff" stroke-width="7" opacity=".35"/>
  <rect x="259" y="280" width="207" height="255" rx="16" fill="#060909" stroke="#111515" stroke-width="10" />
    <rect x="277" y="298" width="171" height="207" rx="8" fill="#101819" stroke="#39d6ff" stroke-width="4" opacity=".88"/>
    <path d="M303 342L358.36 342" stroke="#b7ff36" stroke-width="8" stroke-linecap="round" opacity="0.85" fill="none"/>
    <path d="M303 382L397.69 382" stroke="#e7f8ff" stroke-width="6" stroke-linecap="round" opacity="0.55" fill="none"/>
    <path d="M362.5 451l36-46 52 36 70-78 70 86" stroke="#39d6ff" stroke-width="9" stroke-linecap="round" stroke-linejoin="round" fill="none" opacity=".85"/>
    <text x="362.5" y="517" text-anchor="middle" font-family="ui-monospace, SFMono-Regular, Menlo, monospace" font-size="17.25" fill="#e7f8ff" opacity=".72">MULTIPLE FEEDS</text><rect x="484" y="280" width="207" height="255" rx="16" fill="#060909" stroke="#111515" stroke-width="10" />
    <rect x="502" y="298" width="171" height="207" rx="8" fill="#101819" stroke="#39d6ff" stroke-width="4" opacity=".88"/>
    <path d="M528 342L583.36 342" stroke="#b7ff36" stroke-width="8" stroke-linecap="round" opacity="0.85" fill="none"/>
    <path d="M528 382L622.69 382" stroke="#e7f8ff" stroke-width="6" stroke-linecap="round" opacity="0.55" fill="none"/>
    <path d="M587.5 451l36-46 52 36 70-78 70 86" stroke="#39d6ff" stroke-width="9" stroke-linecap="round" stroke-linejoin="round" fill="none" opacity=".85"/>
    <text x="587.5" y="517" text-anchor="middle" font-family="ui-monospace, SFMono-Regular, Menlo, monospace" font-size="17.25" fill="#e7f8ff" opacity=".72">TOKEN SCANNER</text><rect x="709" y="280" width="207" height="255" rx="16" fill="#060909" stroke="#111515" stroke-width="10" />
    <rect x="727" y="298" width="171" height="207" rx="8" fill="#101819" stroke="#39d6ff" stroke-width="4" opacity=".88"/>
    <path d="M753 342L808.36 342" stroke="#b7ff36" stroke-width="8" stroke-linecap="round" opacity="0.85" fill="none"/>
    <path d="M753 382L847.69 382" stroke="#e7f8ff" stroke-width="6" stroke-linecap="round" opacity="0.55" fill="none"/>
    <path d="M812.5 451l36-46 52 36 70-78 70 86" stroke="#39d6ff" stroke-width="9" stroke-linecap="round" stroke-linejoin="round" fill="none" opacity=".85"/>
    <text x="812.5" y="517" text-anchor="middle" font-family="ui-monospace, SFMono-Regular, Menlo, monospace" font-size="17.25" fill="#e7f8ff" opacity=".72">ORDER BOOK</text><rect x="934" y="280" width="207" height="255" rx="16" fill="#060909" stroke="#111515" stroke-width="10" />
    <rect x="952" y="298" width="171" height="207" rx="8" fill="#101819" stroke="#39d6ff" stroke-width="4" opacity=".88"/>
    <path d="M978 342L1033.36 342" stroke="#b7ff36" stroke-width="8" stroke-linecap="round" opacity="0.85" fill="none"/>
    <path d="M978 382L1072.69 382" stroke="#e7f8ff" stroke-width="6" stroke-linecap="round" opacity="0.55" fill="none"/>
    <path d="M1037.5 451l36-46 52 36 70-78 70 86" stroke="#39d6ff" stroke-width="9" stroke-linecap="round" stroke-linejoin="round" fill="none" opacity=".85"/>
    <text x="1037.5" y="517" text-anchor="middle" font-family="ui-monospace, SFMono-Regular, Menlo, monospace" font-size="17.25" fill="#e7f8ff" opacity=".72">INSIDER FLOW</text>
  <ellipse cx="700" cy="920" rx="320" ry="58" fill="#020303" opacity=".38"/>
    <path d="M545 744c22-210 74-314 155-314s133 104 155 314z" fill="#343b3b" stroke="#050606" stroke-width="12" stroke-linejoin="round" />
    <path d="M544 740c42-34 92-52 156-52s114 18 156 52l58 280H486z" fill="#343b3b" stroke="#050606" stroke-width="12" stroke-linejoin="round" />
    <path d="M596 750c38 42 170 42 208 0l-28 112H624z" fill="#090d0d" stroke="#050606" stroke-width="7" stroke-linejoin="round" opacity=".36"/>
    <path d="M646 770L626 930" stroke="#39d6ff" stroke-width="5" stroke-linecap="round" opacity="0.35" fill="none"/><path d="M754 770L774 930" stroke="#39d6ff" stroke-width="5" stroke-linecap="round" opacity="0.35" fill="none"/>
    <path d="M678 708L656 832" stroke="#e7f8ff" stroke-width="4" stroke-linecap="round" opacity="0.55" fill="none"/><path d="M722 708L744 832" stroke="#e7f8ff" stroke-width="4" stroke-linecap="round" opacity="0.55" fill="none"/>
    <ellipse cx="700" cy="528" rx="78" ry="92" fill="#080909" stroke="#050606" stroke-width="10"/><path d="M652 518L748 518" stroke="#39d6ff" stroke-width="8" stroke-linecap="round" opacity="0.45" fill="none"/><rect x="624" y="500" width="58" height="34" rx="10" fill="#061010" stroke="#39d6ff" stroke-width="5" opacity=".92"/><rect x="718" y="500" width="58" height="34" rx="10" fill="#061010" stroke="#39d6ff" stroke-width="5" opacity=".92"/><path d="M682 518L718 518" stroke="#39d6ff" stroke-width="5" stroke-linecap="round" opacity="0.9" fill="none"/>
    <path d="M470 860c-88 66-126 132-130 214h156c20-90 62-145 126-168z" fill="#343b3b" stroke="#050606" stroke-width="12" stroke-linejoin="round" />
    <path d="M930 860c88 66 126 132 130 214H904c-20-90-62-145-126-168z" fill="#343b3b" stroke="#050606" stroke-width="12" stroke-linejoin="round" />
  <path d="M130 906h1140l96 330H34z" fill="#3a2418" stroke="#050606" stroke-width="20" stroke-linejoin="round" />
    <path d="M165 934h1070l58 210H108z" fill="#0d1111" opacity=".36"/>
    <path d="M240 970L1160 970" stroke="#39d6ff" stroke-width="12" stroke-linecap="round" opacity="0.48" fill="none"/>
    <path d="M520 962c-70 38-128 82-178 134l90 42c48-52 94-86 142-104z" fill="#343b3b" stroke="#050606" stroke-width="10" stroke-linejoin="round" />
    <path d="M880 962c70 38 128 82 178 134l-90 42c-48-52-94-86-142-104z" fill="#343b3b" stroke="#050606" stroke-width="10" stroke-linejoin="round" />
    <rect x="416" y="1112" width="76" height="42" rx="16" fill="#e8e2d6" stroke="#050606" stroke-width="7" />
    <rect x="908" y="1112" width="76" height="42" rx="16" fill="#e8e2d6" stroke="#050606" stroke-width="7" />
    <rect x="500" y="1001" width="400" height="118" rx="18" fill="#070a0a" stroke="#050606" stroke-width="12" />
    <path d="M545 1046L855 1046" stroke="#39d6ff" stroke-width="13" stroke-linecap="round" opacity="0.7" fill="none"/><path d="M570 1090L830 1090" stroke="#e7f8ff" stroke-width="10" stroke-linecap="round" opacity="0.55" fill="none"/>
    <rect x="575" y="1151" width="250" height="54" rx="14" fill="#080c0c" stroke="#050606" stroke-width="9" /><path d="M608 1178L792 1178" stroke="#e7f8ff" stroke-width="7" stroke-linecap="round" opacity="0.58" fill="none"/>
    <rect x="182" y="1045" width="34" height="82" rx="8" fill="#39d6ff" stroke="#050606" stroke-width="7" /><path d="M191 1073L207 1073" stroke="#050606" stroke-width="4" stroke-linecap="round" opacity="0.6" fill="none"/><rect x="331" y="1103" width="108" height="72" rx="8" fill="#14191a" stroke="#050606" stroke-width="7" /><path d="M349 1128L417 1128" stroke="#e7f8ff" stroke-width="4" stroke-linecap="round" opacity="0.55" fill="none"/><path d="M349 1151L401 1151" stroke="#39d6ff" stroke-width="4" stroke-linecap="round" opacity="0.55" fill="none"/><rect x="465" y="1045" width="48" height="64" rx="12" fill="#f4ead9" stroke="#050606" stroke-width="7" /><path d="M513 1063h18c18 0 18 28 0 28h-18" fill="none" stroke="#050606" stroke-width="7" stroke-linejoin="round" /><rect x="605" y="1103" width="84" height="42" rx="10" fill="#080c0c" stroke="#050606" stroke-width="7" /><path d="M619 1125L669 1125" stroke="#39d6ff" stroke-width="5" stroke-linecap="round" opacity="0.75" fill="none"/>
  <rect x="114" y="112" width="220" height="58" rx="14" fill="#0a0d0d" stroke="#39d6ff" stroke-width="5"/>
  <text x="224" y="151" text-anchor="middle" font-family="Inter, Arial, sans-serif" font-size="28" font-weight="800" fill="#e7f8ff">$IPO</text>
  <rect x="1058" y="112" width="228" height="58" rx="14" fill="#0a0d0d" stroke="#27302f" stroke-width="5"/>
  <text x="1172" y="151" text-anchor="middle" font-family="Inter, Arial, sans-serif" font-size="25" font-weight="800" fill="#e7f8ff">IPO #125</text>
  <desc>IPO Floor anonymous insider NLNK-125: grey hoodie, black mask, clear glasses, basement, dual monitor, Pump.fun feed, Common, Trader</desc>
</svg>